<?xml version="1.0" standalone="no"?>
<!DOCTYPE svg PUBLIC "-//W3C//DTD SVG 20010904//EN"
 "http://www.w3.org/TR/2001/REC-SVG-20010904/DTD/svg10.dtd">
<svg version="1.0" xmlns="http://www.w3.org/2000/svg"
 width="500.000000pt" height="500.000000pt" viewBox="0 0 500.000000 500.000000"
 preserveAspectRatio="xMidYMid meet">

<g transform="translate(0.000000,500.000000) scale(0.100000,-0.100000)"
fill="#000000" stroke="none">
<path d="M2320 4843 c-570 -34 -1122 -297 -1531 -731 -337 -358 -562 -826
-624 -1300 -20 -151 -19 -455 1 -614 136 -1061 999 -1909 2070 -2034 161 -19
449 -14 599 10 399 64 762 217 1077 454 122 91 325 285 415 397 266 329 436
710 500 1120 21 136 24 524 5 660 -112 795 -591 1458 -1307 1810 -374 184
-747 255 -1205 228z m470 -87 c945 -114 1736 -843 1933 -1781 36 -168 47 -287
47 -487 0 -371 -63 -647 -221 -973 -181 -374 -496 -720 -860 -946 -208 -129
-497 -245 -735 -294 -190 -39 -297 -48 -533 -42 -178 4 -238 10 -340 31 -446
92 -835 297 -1160 611 -142 137 -220 231 -326 390 -181 271 -301 584 -350 910
-184 1245 717 2429 1964 2580 143 17 440 18 581 1z"/>
<path d="M2365 4724 c-585 -47 -1020 -238 -1414 -619 -366 -354 -582 -769
-657 -1260 -26 -167 -26 -531 0 -700 35 -230 85 -393 187 -605 158 -326 383
-598 690 -830 183 -138 371 -240 571 -309 467 -161 1008 -166 1468 -15 679
224 1259 834 1439 1515 129 487 95 1029 -90 1469 -196 465 -622 914 -1075
1135 -199 98 -425 167 -656 200 -109 15 -371 26 -463 19z m475 -49 c387 -65
755 -233 1045 -477 425 -357 690 -809 787 -1343 30 -163 32 -504 5 -670 -90
-541 -347 -1004 -751 -1352 -317 -273 -693 -446 -1108 -509 -161 -25 -491 -25
-653 0 -312 48 -611 165 -876 342 -145 97 -240 177 -376 318 -310 319 -508
703 -584 1131 -21 114 -24 162 -23 385 0 198 4 277 17 355 81 458 268 829 587
1159 364 376 839 612 1360 676 111 13 458 4 570 -15z"/>
<path d="M2336 4586 c-54 -20 -85 -45 -121 -95 -26 -38 -30 -51 -30 -111 0
-60 4 -74 30 -112 90 -126 244 -146 451 -58 49 21 49 24 5 80 l-19 24 -27 -26
c-73 -73 -215 -75 -292 -4 -29 27 -36 41 -40 82 -9 94 60 154 179 155 73 1
112 -12 149 -47 l27 -26 30 43 29 43 -71 30 c-87 36 -234 46 -300 22z"/>
<path d="M2870 4540 c0 -41 -82 -365 -97 -382 -16 -18 -13 -20 57 -33 19 -4
43 -9 52 -11 15 -4 17 0 13 23 -5 23 52 262 90 379 6 18 2 22 -32 28 -21 3
-48 9 -60 12 -19 5 -23 2 -23 -16z"/>
<path d="M1950 4532 c-30 -9 -56 -16 -58 -18 -2 -1 3 -13 11 -26 19 -30 107
-326 107 -361 0 -32 -6 -31 77 -10 56 14 63 18 49 28 -18 14 -116 323 -116
367 0 15 -3 29 -7 31 -5 2 -33 -3 -63 -11z"/>
<path d="M3330 4386 c0 -22 -18 -36 -298 -228 -30 -21 -60 -38 -68 -38 -30 0
-11 -17 51 -48 36 -18 67 -32 69 -32 2 0 2 8 -1 19 -3 13 6 27 30 45 l35 27
91 -42 c85 -39 91 -44 97 -77 6 -30 3 -39 -16 -54 -13 -10 -21 -20 -19 -22 3
-3 139 -66 143 -66 0 0 0 95 -2 211 -3 182 -1 214 13 236 9 13 15 26 13 27 -2
2 -33 17 -70 34 l-68 31 0 -23z m13 -193 c-3 -40 -10 -73 -15 -73 -12 0 -108
49 -108 55 0 6 123 96 126 92 1 -1 0 -35 -3 -74z"/>
<path d="M1425 4323 c-63 -32 -63 -32 -43 -47 27 -20 198 -314 198 -342 0 -13
2 -24 5 -24 3 0 87 41 187 91 106 53 189 89 199 86 24 -6 24 -8 -7 47 -24 42
-28 46 -43 33 -9 -8 -71 -42 -138 -76 -91 -45 -124 -57 -131 -48 -25 33 -152
257 -157 280 -9 32 -8 32 -70 0z"/>
<path d="M3652 4185 c-19 -24 -20 -59 -1 -71 19 -11 7 -22 -31 -28 -40 -6 -52
-19 -26 -29 16 -7 73 5 104 22 23 12 52 59 52 84 0 20 -33 47 -58 47 -11 0
-29 -11 -40 -25z"/>
<path d="M1032 4000 c-47 -42 -51 -48 -32 -53 14 -3 31 -28 51 -74 100 -223
143 -319 146 -322 2 -3 23 15 48 39 43 42 44 44 22 54 -12 6 -26 26 -31 44 -9
32 -7 36 60 103 l69 69 40 -11 c22 -6 43 -16 47 -22 4 -7 29 8 64 39 54 45 56
49 34 52 -51 7 -426 105 -445 117 -18 11 -26 7 -73 -35z m248 -120 c0 -3 -20
-25 -44 -49 l-44 -44 -31 61 c-17 34 -31 65 -31 70 0 5 34 0 75 -12 41 -11 75
-23 75 -26z"/>
<path d="M2293 3999 c-589 -90 -1085 -520 -1247 -1082 -60 -208 -77 -474 -43
-664 111 -612 587 -1106 1190 -1235 150 -32 467 -32 614 0 428 93 802 372
1014 756 139 251 198 503 186 795 -11 275 -88 509 -244 746 -227 343 -572 580
-973 670 -89 20 -402 29 -497 14z m397 -29 c118 -15 279 -56 380 -97 175 -72
322 -174 485 -338 212 -211 340 -447 402 -735 28 -130 25 -466 -6 -610 -63
-299 -178 -509 -396 -725 -231 -230 -463 -360 -755 -422 -131 -28 -467 -25
-610 6 -303 65 -507 177 -730 400 -191 192 -301 364 -374 581 -48 143 -66 265
-66 445 0 180 12 286 47 420 64 246 170 430 358 624 209 216 434 353 685 417
160 41 405 55 580 34z"/>
<path d="M2315 3939 c-178 -24 -381 -94 -540 -188 -310 -182 -553 -478 -658
-802 -52 -157 -62 -230 -62 -449 0 -160 4 -224 18 -290 74 -349 273 -658 562
-872 454 -338 1065 -380 1560 -107 295 162 542 448 658 759 168 452 116 905
-151 1310 -78 118 -279 318 -402 399 -170 112 -358 190 -542 226 -99 20 -345
28 -443 14z m394 -147 c14 -10 37 -41 51 -68 22 -42 25 -61 25 -149 0 -118 -6
-134 -136 -350 -46 -77 -85 -143 -87 -147 -2 -5 17 -8 43 -8 78 0 125 -41 140
-123 11 -57 -12 -123 -59 -173 -49 -51 -86 -63 -121 -40 -35 23 -31 36 8 29
41 -6 82 24 108 81 26 56 24 92 -6 121 -56 57 -108 22 -173 -112 -46 -99 -55
-207 -24 -310 31 -99 52 -123 110 -123 52 0 181 -25 193 -37 5 -5 -41 -6 -101
-5 -61 2 -110 1 -110 -3 0 -13 24 -52 68 -108 25 -31 43 -60 40 -62 -9 -9
-128 76 -154 110 -31 40 -79 65 -129 65 -50 0 -261 -66 -307 -95 -48 -32 -66
-81 -44 -124 29 -55 129 -108 262 -137 61 -13 125 -17 282 -17 112 1 200 -3
195 -7 -16 -15 -178 -32 -298 -31 -124 0 -258 19 -335 46 -49 17 -100 22 -118
11 -34 -21 12 -203 76 -302 22 -32 64 -83 95 -111 58 -55 59 -65 4 -36 -63 32
-90 59 -148 148 -88 135 -88 135 -113 135 -69 0 -199 -106 -211 -173 -18 -94
131 -216 355 -291 116 -38 216 -52 455 -63 124 -6 140 -8 95 -14 -100 -13
-320 -9 -427 7 -124 18 -292 71 -372 116 -77 44 -154 123 -169 174 -31 105 -3
162 120 246 54 37 101 78 117 102 24 36 26 48 27 153 2 128 9 146 73 189 66
43 150 72 279 96 67 12 122 27 122 33 0 5 -12 32 -26 59 -48 91 -66 156 -67
246 -1 150 42 242 232 498 141 189 171 251 171 350 0 139 -45 185 -155 157
-187 -49 -295 -254 -218 -412 24 -48 15 -57 -16 -17 -68 87 -43 260 55 372 99
113 247 161 323 104z m500 -1656 c42 -22 61 -58 61 -116 0 -59 -16 -102 -55
-148 -26 -31 -118 -92 -140 -92 -5 0 18 28 51 63 80 81 94 104 94 150 0 91
-64 133 -142 93 -25 -13 -28 -13 -28 0 0 8 12 26 26 39 31 29 89 33 133 11z"/>
<path d="M3835 3993 c-39 -10 -75 -44 -86 -82 -10 -35 -9 -45 14 -92 14 -30
42 -80 63 -111 42 -66 40 -88 -10 -88 -69 0 -135 89 -136 183 0 26 -2 47 -5
47 -2 0 -27 -5 -56 -11 -50 -11 -51 -12 -45 -42 18 -88 96 -201 173 -248 105
-65 242 16 212 126 -6 22 -30 69 -53 105 -49 76 -57 95 -50 115 10 26 52 16
95 -22 49 -44 69 -86 69 -144 0 -38 2 -41 23 -35 12 3 31 6 42 6 43 1 46 13
21 78 -32 82 -58 123 -106 165 -50 46 -109 64 -165 50z"/>
<path d="M534 2411 c-23 -10 -44 -23 -47 -27 -3 -5 27 -9 66 -9 68 0 76 -2
132 -41 33 -23 67 -44 75 -47 10 -4 8 -6 -7 -6 -12 -1 -50 13 -85 31 -34 17
-82 33 -108 35 -93 8 -147 -67 -84 -116 88 -69 310 -44 344 39 44 106 -151
202 -286 141z"/>
<path d="M4236 2415 c-21 -7 -46 -21 -55 -30 -15 -15 -12 -16 31 -10 68 10
109 0 163 -41 26 -20 59 -40 73 -44 l27 -8 -25 -1 c-14 -1 -56 15 -94 34 -77
39 -129 44 -176 20 -32 -17 -49 -58 -33 -84 34 -57 197 -78 293 -39 89 37 103
100 36 163 -56 53 -157 70 -240 40z"/>
<path d="M4065 1812 c-27 -58 -65 -128 -82 -154 -18 -26 -33 -50 -33 -53 0 -3
-38 -56 -84 -118 l-85 -112 27 -14 c40 -21 222 -162 222 -172 0 -22 20 -4 71
63 29 40 73 96 96 125 l42 52 -28 20 c-22 16 -30 18 -34 8 -3 -7 -33 -50 -67
-95 l-61 -82 -35 26 -34 26 32 42 c17 22 41 48 52 58 20 16 20 16 -4 37 -32
26 -37 26 -51 -1 -16 -32 -69 -98 -77 -98 -4 1 -17 9 -30 20 l-23 19 60 80
c34 44 66 83 72 86 7 5 4 14 -7 27 -18 19 -17 19 9 9 22 -9 27 -8 27 5 0 16
37 94 45 94 11 0 191 -93 207 -107 9 -8 22 -12 27 -8 12 7 45 66 39 69 -2 0
-54 26 -116 56 -63 30 -116 58 -119 63 -2 4 9 29 26 56 l30 49 -24 16 c-13 9
-28 16 -32 16 -4 -1 -30 -49 -58 -108z"/>
<path d="M743 1880 c-73 -33 -105 -113 -82 -206 10 -39 25 -62 76 -113 l64
-64 20 32 c23 38 23 41 5 41 -21 0 -74 47 -91 81 -8 15 -15 47 -15 69 0 84 94
131 167 84 48 -31 78 -128 53 -175 -9 -15 -7 -19 7 -19 10 0 28 -3 41 -6 21
-6 22 -3 22 43 0 183 -129 296 -267 233z"/>
<path d="M1113 1499 c-12 -12 -252 -69 -290 -69 -29 0 -29 -18 2 -52 22 -26
25 -27 52 -13 42 22 49 19 93 -38 47 -63 49 -78 15 -105 l-24 -19 32 -42 c32
-41 47 -51 47 -29 0 25 134 288 147 288 19 0 16 8 -18 51 -33 42 -39 45 -56
28z m-23 -84 c0 -10 -44 -95 -49 -95 -8 0 -55 70 -50 74 4 3 75 23 92 25 4 1
7 -1 7 -4z"/>
<path d="M3713 1306 c-39 -35 -41 -37 -28 -64 16 -34 40 -161 31 -169 -7 -7
-134 44 -157 64 -22 19 -29 17 -72 -20 l-39 -32 36 -38 c44 -47 150 -176 162
-199 8 -16 12 -15 42 9 l33 26 -34 36 c-39 42 -101 121 -94 121 3 0 48 -18
101 -40 53 -22 100 -40 104 -40 5 0 1 44 -10 98 -10 53 -17 104 -15 112 2 13
85 -78 112 -124 9 -15 13 -14 45 13 l35 29 -46 49 c-49 51 -137 159 -154 187
-9 16 -14 14 -52 -18z"/>
<path d="M1289 1288 c-7 -13 -52 -69 -102 -126 l-89 -104 23 -24 c12 -13 28
-24 34 -24 6 0 28 22 49 50 44 57 50 57 118 -13 l40 -41 19 24 c20 27 24 40
12 40 -5 0 -30 20 -58 44 l-50 44 24 26 24 25 61 -51 c34 -28 70 -62 82 -75
19 -23 21 -23 36 -6 9 10 18 23 20 28 2 6 -42 48 -97 94 -55 46 -108 90 -117
98 -15 13 -18 12 -29 -9z"/>
<path d="M1509 993 c-30 -59 -64 -122 -76 -140 -13 -19 -23 -37 -23 -41 0 -4
42 -29 93 -56 50 -27 110 -61 133 -76 l41 -27 18 30 c15 25 16 32 5 35 -26 9
-165 84 -178 97 -12 10 -11 18 2 44 9 17 19 31 22 31 13 0 102 -50 114 -64 11
-15 15 -13 32 15 10 17 18 32 16 33 -2 1 -33 17 -70 35 l-67 34 15 28 c8 16
19 29 25 29 15 0 140 -70 166 -93 21 -19 21 -19 38 13 9 17 15 33 13 35 -2 1
-48 26 -103 55 -55 29 -114 60 -131 71 l-30 18 -55 -106z"/>
<path d="M3233 979 c-105 -48 -129 -68 -102 -84 13 -9 119 -231 119 -251 0
-18 12 -18 55 3 36 17 43 27 25 38 -6 4 -20 25 -31 48 l-21 41 22 18 c34 28
70 22 125 -20 l50 -39 43 21 c23 11 42 23 42 26 0 3 -31 21 -69 40 l-70 33 25
29 c30 37 30 65 1 109 -36 53 -76 51 -214 -12z m150 -30 c6 -9 7 -23 4 -32 -6
-15 -115 -77 -135 -77 -9 0 -32 44 -32 60 0 12 120 69 139 67 8 -1 18 -9 24
-18z"/>
<path d="M3032 897 c-28 -8 -32 -14 -27 -31 19 -58 45 -174 45 -197 0 -14 -9
-34 -20 -44 -26 -24 -121 -33 -137 -14 -15 18 -53 168 -53 208 0 29 -2 31 -27
25 -59 -13 -65 -16 -60 -32 3 -10 19 -66 35 -125 17 -60 38 -117 47 -127 25
-28 84 -34 155 -16 135 35 152 72 110 237 -11 43 -20 89 -20 103 0 29 0 29
-48 13z"/>
<path d="M2013 851 c-101 -47 -124 -185 -44 -261 45 -43 104 -62 188 -62 80 1
100 12 106 59 3 21 8 48 12 59 6 19 2 22 -42 29 -26 4 -63 13 -82 21 -19 8
-35 13 -37 12 -1 -2 -4 -16 -6 -33 -3 -26 1 -30 22 -33 55 -6 70 -13 70 -31 0
-24 -20 -29 -90 -19 -44 5 -61 13 -82 38 -55 60 -22 161 56 175 47 9 111 -11
136 -43 l22 -27 24 28 c13 16 24 32 24 36 0 5 -28 21 -62 37 -82 36 -158 42
-215 15z"/>
<path d="M2481 821 c-144 -37 -178 -216 -58 -305 42 -31 152 -35 210 -7 114
55 121 223 12 291 -38 24 -114 33 -164 21z m105 -66 c42 -17 69 -71 59 -121
-15 -81 -127 -114 -186 -55 -52 53 -39 143 25 175 39 19 58 20 102 1z"/>
</g>
</svg>
